<svg width="92" height="92" viewBox="0 0 92 92" fill="none" xmlns="http://www.w3.org/2000/svg">
<circle cx="46" cy="46" r="46" fill="#34296B" fill-opacity="0.1"/>
<circle cx="46.0003" cy="46" r="26.8333" fill="#34296B" fill-opacity="0.2"/>
<path d="M37.7697 42.6732H41.9869L44.2959 45.2781C44.4799 45.4857 44.7435 45.6047 45.0192 45.6047C45.2949 45.6047 45.5585 45.4857 45.7423 45.2782L48.0514 42.6732H52.2686C53.0145 42.6732 53.6213 42.0597 53.6213 41.3057V32.8199L56.208 30.1676C56.4712 29.8977 56.6127 29.5259 56.5962 29.1473C56.5796 28.7688 56.4064 28.4109 56.1207 28.1654L54.9505 27.1602C54.4153 26.7002 53.6325 26.7277 53.1297 27.2236L50.5631 29.7563C50.555 29.756 50.5471 29.7552 50.5389 29.7552H37.7697C37.0238 29.7552 36.417 30.3686 36.417 31.1226V41.3057C36.417 42.0597 37.0238 42.6732 37.7697 42.6732ZM37.5962 31.1227C37.5962 31.026 37.674 30.9473 37.7697 30.9473H49.3563L47.0159 33.2569C46.7829 33.4868 46.7783 33.8642 47.0058 34.0998C47.2332 34.3353 47.6064 34.3398 47.8396 34.1099L53.9534 28.0768C54.018 28.013 54.1184 28.0096 54.187 28.0686L55.3571 29.0738C55.4073 29.1169 55.4169 29.1712 55.4181 29.1998C55.4193 29.2282 55.4145 29.2832 55.3683 29.3306L45.2249 39.7317C45.183 39.7746 45.135 39.7838 45.102 39.7839C45.1018 39.7839 45.1016 39.7839 45.1013 39.7839C45.0684 39.7839 45.0206 39.775 44.9787 39.7326L40.0349 34.7348C39.9929 34.6924 39.9841 34.6439 39.9841 34.6108C39.9841 34.5776 39.9929 34.5293 40.0349 34.4867L41.1141 33.3958C41.1817 33.3274 41.292 33.3274 41.3595 33.3958L44.2393 36.3071C44.6134 36.6852 45.2258 36.6887 45.6043 36.3154L46.4677 35.4634C46.7008 35.2334 46.7053 34.8561 46.4778 34.6205C46.2503 34.385 45.8771 34.3803 45.6441 34.6103L44.9278 35.3172L42.1934 32.5528C41.6658 32.0196 40.8079 32.0196 40.2803 32.5528L39.2011 33.6438C38.6737 34.1769 38.6737 35.0445 39.2011 35.5777L44.1448 40.5754C44.4005 40.8339 44.7399 40.976 45.1012 40.976C45.1029 40.976 45.1045 40.976 45.1062 40.976C45.4694 40.9747 45.8098 40.83 46.0646 40.5686L52.4421 34.029V41.3056C52.4421 41.4024 52.3643 41.4811 52.2686 41.4811H47.7882C47.6206 41.4811 47.4609 41.5532 47.3491 41.6793L45.0192 44.3077L42.6892 41.6794C42.5774 41.5532 42.4178 41.4811 42.2502 41.4811H37.7697C37.674 41.4811 37.5962 41.4024 37.5962 41.3057V31.1227Z" fill="#34296B"/>
<path d="M62.7446 63.6883H58.6713V60.893C58.6713 60.2467 58.1511 59.7209 57.5118 59.7209H55.4008V56.9256C55.4008 56.2793 54.8807 55.7535 54.2414 55.7535H52.7845V52.9582C52.7845 52.3119 52.2644 51.786 51.6251 51.786H50.4298V48.9907C50.4298 48.3444 49.9097 47.8186 49.2704 47.8186H42.7295C42.0902 47.8186 41.5701 48.3444 41.5701 48.9907V51.7862H40.3748C39.7355 51.7862 39.2154 52.3121 39.2154 52.9584V55.7537H37.7585C37.1191 55.7537 36.599 56.2795 36.599 56.9258V59.7211H34.4881C33.8487 59.7211 33.3286 60.2469 33.3286 60.8932V63.6885H29.2554C28.9762 63.6885 28.75 63.9173 28.75 64.1995C28.75 64.4816 28.9762 64.7104 29.2554 64.7104H37.257C37.5362 64.7104 37.7624 64.4816 37.7624 64.1995C37.7624 63.9173 37.5362 63.6885 37.257 63.6885H34.3393V60.8932C34.3393 60.8103 34.406 60.7429 34.4881 60.7429H50.1698C50.449 60.7429 50.6752 60.5141 50.6752 60.232C50.6752 59.9498 50.449 59.721 50.1698 59.721H37.6098V56.9257C37.6098 56.8428 37.6765 56.7754 37.7585 56.7754H42.4844C42.7635 56.7754 42.9897 56.5466 42.9897 56.2645C42.9897 55.9823 42.7635 55.7535 42.4844 55.7535H40.2262V52.9582C40.2262 52.8753 40.2929 52.8079 40.3749 52.8079H46.3925C46.6717 52.8079 46.8979 52.5791 46.8979 52.297C46.8979 52.0148 46.6717 51.786 46.3925 51.786H42.5809V48.9907C42.5809 48.9078 42.6476 48.8404 42.7296 48.8404H49.2705C49.3525 48.8404 49.4192 48.9078 49.4192 48.9907V51.7858H48.1912C47.9121 51.7858 47.6859 52.0146 47.6859 52.2968C47.6859 52.5789 47.9121 52.8077 48.1912 52.8077H51.6252C51.7072 52.8077 51.7739 52.8751 51.7739 52.958V55.7533H44.2994C44.0202 55.7533 43.794 55.9821 43.794 56.2643C43.794 56.5464 44.0202 56.7752 44.2994 56.7752H54.2415C54.3235 56.7752 54.3902 56.8426 54.3902 56.9255V59.7208H52.0666C51.7874 59.7208 51.5612 59.9496 51.5612 60.2318C51.5612 60.5139 51.7874 60.7427 52.0666 60.7427H57.512C57.594 60.7427 57.6607 60.8101 57.6607 60.893V63.6883H39.2629C38.9838 63.6883 38.7576 63.9171 38.7576 64.1993C38.7576 64.4814 38.9838 64.7102 39.2629 64.7102H62.7446C63.0238 64.7102 63.25 64.4814 63.25 64.1993C63.25 63.9172 63.0238 63.6884 62.7446 63.6883Z" fill="#34296B"/>
</svg>
