<svg width="92" height="92" viewBox="0 0 92 92" fill="none" xmlns="http://www.w3.org/2000/svg">
<circle cx="46" cy="46" r="46" fill="#E35371" fill-opacity="0.1"/>
<circle cx="46.0003" cy="46" r="26.8333" fill="#E35371" fill-opacity="0.2"/>
<path d="M32.9759 34.2676C33.0958 34.3864 33.1637 34.5479 33.1646 34.7167C33.1655 34.8855 33.0993 35.0477 32.9806 35.1677C32.9152 35.2335 32.8505 35.3 32.7858 35.3673C32.6689 35.4891 32.5085 35.5594 32.3398 35.5629C32.171 35.5663 32.0079 35.5026 31.8861 35.3857C31.7644 35.2688 31.6941 35.1083 31.6906 34.9395C31.6872 34.7707 31.7509 34.6075 31.8678 34.4857C31.9368 34.413 32.0062 34.3422 32.0768 34.2713C32.1956 34.1517 32.357 34.0841 32.5256 34.0834C32.6941 34.0827 32.8561 34.149 32.9759 34.2676ZM60.8347 39.618C60.7576 39.6507 60.6877 39.6982 60.629 39.7579C60.5703 39.8177 60.5239 39.8884 60.4926 39.9661C60.4613 40.0437 60.4456 40.1268 60.4464 40.2106C60.4472 40.2943 60.4646 40.3771 60.4975 40.4541C61.6385 43.1462 62.0607 46.0887 61.7225 48.9931C61.3843 51.8975 60.2974 54.6642 58.5683 57.0218C56.8392 59.3795 54.5273 61.2473 51.8593 62.4421C49.1912 63.6369 46.2585 64.1177 43.3488 63.8374C40.439 63.557 37.652 62.5251 35.261 60.8429C32.87 59.1607 30.957 56.8858 29.7096 54.2413C28.4622 51.5969 27.9232 48.6736 28.1455 45.758C28.3677 42.8424 29.3436 40.0346 30.9774 37.6099C31.069 37.4701 31.102 37.2998 31.0691 37.1358C31.0362 36.9719 30.94 36.8275 30.8015 36.7339C30.663 36.6403 30.4932 36.605 30.3289 36.6357C30.1646 36.6664 30.0189 36.7605 29.9234 36.8977C28.1693 39.5046 27.1222 42.5226 26.8849 45.656C26.6475 48.7894 27.2279 51.9307 28.5693 54.7723C29.9107 57.6138 31.967 60.058 34.5368 61.8655C37.1066 63.673 40.1018 64.7817 43.2288 65.0831C46.3559 65.3844 49.5075 64.8681 52.3751 63.5846C55.2426 62.3012 57.7276 60.2946 59.5867 57.7615C61.4458 55.2284 62.6151 52.2557 62.9802 49.1346C63.3452 46.0135 62.8935 42.8511 61.6692 39.9572C61.6367 39.88 61.5894 39.8101 61.5299 39.7512C61.4704 39.6924 61.3998 39.6459 61.3223 39.6144C61.2448 39.5829 61.1618 39.567 61.0782 39.5676C60.9945 39.5682 60.9118 39.5854 60.8347 39.618ZM44.9646 61.0388C45.1333 61.0388 45.295 60.9718 45.4143 60.8525C45.5336 60.7332 45.6006 60.5714 45.6006 60.4027C45.6006 60.234 45.5336 60.0721 45.4143 59.9528C45.295 59.8335 45.1333 59.7665 44.9646 59.7665C43.1361 59.7649 41.3294 59.3691 39.6676 58.6059C38.0059 57.8428 36.5281 56.7303 35.335 55.3443C34.1419 53.9583 33.2615 52.3313 32.7538 50.5742C32.2461 48.8171 32.123 46.9712 32.393 45.1622C32.6629 43.3532 33.3195 41.6237 34.3181 40.0915C35.3166 38.5593 36.6336 37.2604 38.1794 36.2833C39.7251 35.3062 41.4633 34.6739 43.2754 34.4294C45.0875 34.185 46.931 34.3341 48.6803 34.8667C48.8416 34.9159 49.0159 34.899 49.1648 34.8197C49.3137 34.7404 49.425 34.6052 49.4742 34.4438C49.5234 34.2824 49.5065 34.108 49.4272 33.9591C49.3479 33.8102 49.2127 33.6989 49.0513 33.6496C47.1265 33.0621 45.0977 32.8966 43.1032 33.1646C41.1087 33.4325 39.1954 34.1276 37.4938 35.2023C35.7922 36.2771 34.3424 37.7063 33.2431 39.3924C32.1438 41.0785 31.421 42.982 31.124 44.9729C30.8269 46.9638 30.9626 48.9954 31.5217 50.9291C32.0809 52.8628 33.0503 54.6532 34.364 56.1781C35.6777 57.703 37.3047 58.9266 39.1341 59.7654C40.9635 60.6043 42.9522 61.0386 44.9646 61.0388ZM47.6779 60.7629C47.7214 60.7629 47.7647 60.7585 47.8073 60.7498C48.0392 60.7014 48.2688 60.6477 48.496 60.5888C48.6592 60.5464 48.7989 60.4409 48.8843 60.2954C48.9697 60.15 48.9938 59.9766 48.9514 59.8134C48.909 59.6502 48.8035 59.5105 48.6581 59.4251C48.5127 59.3396 48.3394 59.3155 48.1762 59.3579C47.9698 59.4113 47.7604 59.4601 47.55 59.5033C47.3958 59.5351 47.2588 59.623 47.1656 59.75C47.0724 59.8771 47.0297 60.0342 47.0456 60.1909C47.0616 60.3476 47.1351 60.4929 47.252 60.5985C47.3689 60.7041 47.5208 60.7626 47.6783 60.7626L47.6779 60.7629ZM65.1413 32.5532C65.1729 32.6626 65.1746 32.7784 65.1462 32.8886C65.1179 32.9989 65.0604 33.0995 64.98 33.18L57.5079 40.6541C57.487 40.6736 57.4648 40.6917 57.4414 40.7082C59.0972 43.9694 59.4109 47.7493 58.3153 51.2389C57.2198 54.7285 54.8021 57.6505 51.5797 59.3793C51.4876 59.4294 51.3844 59.4555 51.2795 59.4553C51.1379 59.4554 51.0002 59.4081 50.8885 59.3211C50.7767 59.234 50.6972 59.1121 50.6626 58.9747C50.6279 58.8373 50.6401 58.6923 50.6973 58.5626C50.7544 58.433 50.8531 58.3261 50.9779 58.259C52.487 57.4499 53.8172 56.3443 54.8887 55.0086C55.9602 53.6728 56.751 52.1343 57.2137 50.4853C57.6763 48.8364 57.8013 47.111 57.5811 45.4126C57.3609 43.7141 56.8 42.0777 55.9321 40.6014L52.9705 39.9325L51.8999 41.0034V41.0052H51.8977L48.2089 44.695C48.7349 45.4243 49.0002 46.3094 48.9621 47.2078C48.9241 48.1063 48.5849 48.9657 47.9992 49.6479C47.4135 50.3301 46.6153 50.7953 45.7332 50.9686C44.8511 51.1419 43.9363 51.0132 43.1361 50.6033C42.336 50.1934 41.697 49.5261 41.3221 48.7088C40.9472 47.8915 40.8581 46.9718 41.0692 46.0977C41.2803 45.2236 41.7794 44.446 42.486 43.8901C43.1926 43.3342 44.0656 43.0323 44.9646 43.033C45.1333 43.033 45.295 43.1 45.4143 43.2193C45.5336 43.3386 45.6006 43.5004 45.6006 43.6692C45.6006 43.8379 45.5336 43.9997 45.4143 44.119C45.295 44.2383 45.1333 44.3053 44.9646 44.3053C44.3579 44.3043 43.768 44.5046 43.2873 44.875C42.8067 45.2454 42.4626 45.7649 42.3089 46.352C42.1552 46.9391 42.2007 47.5606 42.4381 48.1191C42.6756 48.6776 43.0916 49.1414 43.621 49.4379C44.1504 49.7344 44.7632 49.8468 45.3633 49.7574C45.9634 49.6681 46.5169 49.382 46.937 48.9441C47.357 48.5062 47.62 47.9412 47.6845 47.3378C47.749 46.7343 47.6114 46.1265 47.2934 45.6097L45.4142 47.4906C45.2942 47.6065 45.1336 47.6706 44.9668 47.6692C44.8001 47.6678 44.6405 47.6009 44.5226 47.483C44.4047 47.3651 44.3377 47.2055 44.3363 47.0387C44.3348 46.8719 44.3988 46.7112 44.5147 46.5912L50.5305 40.5737C48.9176 39.1903 46.8452 38.4611 44.7217 38.5299C42.5981 38.5986 40.5772 39.4603 39.0571 40.9451C37.537 42.43 36.6278 44.4304 36.5087 46.5523C36.3896 48.6742 37.0691 50.7639 38.4135 52.4096C39.7579 54.0553 41.6696 55.1379 43.7721 55.444C45.8747 55.7501 48.0156 55.2576 49.7732 54.0635C51.5308 52.8694 52.7777 51.0603 53.2682 48.9924C53.7588 46.9246 53.4574 44.7479 52.4236 42.8912C52.3788 42.8181 52.3494 42.7366 52.3369 42.6518C52.3244 42.5669 52.3292 42.4804 52.351 42.3975C52.3728 42.3146 52.4112 42.2369 52.4638 42.1692C52.5163 42.1014 52.582 42.045 52.657 42.0033C52.7319 41.9616 52.8144 41.9355 52.8997 41.9266C52.985 41.9176 53.0712 41.926 53.1531 41.9512C53.235 41.9764 53.311 42.0179 53.3765 42.0733C53.442 42.1286 53.4957 42.1966 53.5342 42.2732C54.7342 44.423 55.0841 46.9449 54.5147 49.3403C53.9452 51.7357 52.498 53.8301 50.459 55.2095C48.4201 56.5889 45.9379 57.1528 43.5033 56.7897C41.0687 56.4266 38.859 55.163 37.311 53.2486C35.763 51.3343 34.9895 48.9086 35.1435 46.4512C35.2974 43.9939 36.3675 41.6838 38.1423 39.9776C39.917 38.2715 42.2672 37.2936 44.728 37.2374C47.1889 37.1811 49.5813 38.0505 51.4321 39.6736L52.0711 39.0346L51.1799 35.0841C51.1563 34.9794 51.1596 34.8704 51.1894 34.7672C51.2192 34.6641 51.2746 34.5701 51.3504 34.4941L53.4096 32.4347C50.6087 30.8152 47.4015 30.0352 44.1699 30.1876C40.9384 30.3399 37.8187 31.4183 35.1826 33.2941C35.1147 33.3445 35.0375 33.3808 34.9554 33.4009C34.8733 33.4211 34.7881 33.4247 34.7046 33.4115C34.6211 33.3983 34.5411 33.3686 34.4692 33.3241C34.3974 33.2797 34.3351 33.2213 34.286 33.1525C34.2369 33.0837 34.2021 33.0058 34.1834 32.9233C34.1648 32.8408 34.1628 32.7555 34.1775 32.6723C34.1922 32.589 34.2234 32.5096 34.2692 32.4385C34.3149 32.3674 34.3744 32.3062 34.4441 32.2584C37.326 30.2072 40.7443 29.0432 44.2787 28.9095C47.8132 28.7758 51.3096 29.6783 54.3381 31.5059L58.8228 27.02C58.9032 26.9394 59.0037 26.882 59.1139 26.8535C59.2241 26.8251 59.3399 26.8268 59.4492 26.8584C59.5585 26.89 59.6573 26.9504 59.7353 27.0332C59.8133 27.1161 59.8677 27.2183 59.8927 27.3294L60.7733 31.2282L64.6711 32.109C64.782 32.1341 64.8841 32.1885 64.9668 32.2665C65.0495 32.3445 65.1098 32.4433 65.1413 32.5525V32.5532ZM63.265 33.0985L60.101 32.3835C59.9837 32.357 59.8763 32.2977 59.7913 32.2127C59.7062 32.1276 59.647 32.0202 59.6205 31.9029L58.9057 28.738L52.4981 35.1459L53.3005 38.7027L56.4841 39.4217L56.498 39.425L56.8559 39.5057L63.265 33.0985Z" fill="#E35371"/>
</svg>
