<svg width="92" height="92" viewBox="0 0 92 92" fill="none" xmlns="http://www.w3.org/2000/svg">
<circle cx="46" cy="46" r="46" fill="#1DB6BC" fill-opacity="0.1"/>
<circle cx="46.0003" cy="46" r="26.8333" fill="#1DB6BC" fill-opacity="0.2"/>
<path d="M65.0745 45.8102C63.5095 42.9492 61.2773 40.433 58.6194 38.5335C55.9132 36.5994 52.7517 35.2985 49.477 34.7717C49.0689 34.7062 48.6845 34.9837 48.6188 35.392C48.5531 35.8002 48.8308 36.1844 49.239 36.25C55.214 37.2114 60.5374 40.9071 63.5594 46.1697C59.9526 52.4581 53.2624 56.3469 45.9997 56.3469C38.737 56.3469 32.0469 52.4581 28.44 46.1697C31.462 40.9071 36.7855 37.2114 42.7604 36.25C43.1686 36.1844 43.4463 35.8001 43.3806 35.392C43.3149 34.9836 42.9306 34.7063 42.5225 34.7717C39.2477 35.2986 36.0862 36.5994 33.38 38.5335C30.7221 40.433 28.49 42.9492 26.9249 45.8102C26.8024 46.0341 26.8024 46.305 26.9249 46.5289C30.7431 53.5085 38.0521 57.8443 45.9997 57.8443C53.9473 57.8443 61.2563 53.5085 65.0745 46.5289C65.197 46.305 65.197 46.0341 65.0745 45.8102Z" fill="#1DB6BC"/>
<path d="M37.6191 46.1748C37.6191 50.7959 41.3786 54.5554 45.9997 54.5554C50.6207 54.5554 54.3802 50.796 54.3802 46.1748C54.3802 41.5537 50.6206 37.7943 45.9996 37.7943C41.3786 37.7943 37.6191 41.5538 37.6191 46.1748ZM52.8827 46.1748C52.8827 49.9702 49.795 53.058 45.9996 53.058C42.2042 53.058 39.1165 49.9702 39.1165 46.1748C39.1165 42.3795 42.2042 39.2917 45.9996 39.2917C49.795 39.2917 52.8827 42.3795 52.8827 46.1748Z" fill="#1DB6BC"/>
<path d="M45.9993 41.5303C43.4398 41.5303 41.3574 43.6126 41.3574 46.1722C41.3574 48.7318 43.4398 50.8141 45.9993 50.8141C48.5589 50.8141 50.6413 48.7318 50.6413 46.1722C50.6413 45.777 50.5909 45.3866 50.493 45.0078C50.7504 44.0981 50.5224 43.0787 49.8077 42.3639C49.2986 41.8549 48.6217 41.5745 47.9019 41.5745C47.6476 41.5745 47.3989 41.6102 47.1609 41.6778C46.7829 41.5804 46.3934 41.5303 45.9993 41.5303ZM45.9993 49.3167C44.2654 49.3167 42.8548 47.9061 42.8548 46.1722C42.8548 44.6126 43.9963 43.3152 45.4875 43.07C45.3041 43.4382 45.2064 43.8464 45.2064 44.2698C45.2064 44.9897 45.4868 45.6665 45.9959 46.1756C46.505 46.6847 47.1818 46.9651 47.9018 46.9651C48.3252 46.9651 48.7333 46.8674 49.1016 46.684C48.8564 48.1752 47.5589 49.3167 45.9993 49.3167ZM48.7489 45.1168C48.5227 45.3431 48.2218 45.4677 47.9019 45.4677C47.5819 45.4677 47.281 45.3432 47.0549 45.1168C46.8286 44.8906 46.7039 44.5897 46.7039 44.2698C46.7039 43.9499 46.8285 43.649 47.0549 43.4228C47.281 43.1965 47.5819 43.0719 47.9019 43.0719C48.2218 43.0719 48.5227 43.1965 48.7489 43.4228C49.2159 43.8898 49.2159 44.6498 48.7489 45.1168Z" fill="#1DB6BC"/>
<path d="M45.9997 35.9966C46.1966 35.9966 46.3897 35.9173 46.5289 35.778C46.6682 35.638 46.7484 35.4456 46.7484 35.2487C46.7484 35.051 46.6683 34.8586 46.5289 34.7194C46.3897 34.5794 46.1966 34.5 45.9997 34.5C45.8028 34.5 45.6096 34.5794 45.4703 34.7194C45.3311 34.8586 45.251 35.051 45.251 35.2487C45.251 35.4456 45.331 35.6388 45.4703 35.778C45.6096 35.9173 45.8028 35.9966 45.9997 35.9966Z" fill="#1DB6BC"/>
</svg>
